<svg width="21" height="17" viewBox="0 0 21 17" fill="none" xmlns="http://www.w3.org/2000/svg">
<path d="M1.875 6.58335H19.125M5.70833 11.375H6.66667M10.5 11.375H11.4583M4.75 15.2084H16.25C17.0125 15.2084 17.7438 14.9055 18.2829 14.3663C18.8221 13.8271 19.125 13.0959 19.125 12.3334V4.66669C19.125 3.90419 18.8221 3.17292 18.2829 2.63376C17.7438 2.09459 17.0125 1.79169 16.25 1.79169H4.75C3.9875 1.79169 3.25624 2.09459 2.71707 2.63376C2.1779 3.17292 1.875 3.90419 1.875 4.66669V12.3334C1.875 13.0959 2.1779 13.8271 2.71707 14.3663C3.25624 14.9055 3.9875 15.2084 4.75 15.2084Z" stroke="#383535" stroke-opacity="0.6" stroke-width="1.91667" stroke-linecap="round" stroke-linejoin="round"/>
</svg>
