<svg width="18" height="20" viewBox="0 0 18 20" fill="none" xmlns="http://www.w3.org/2000/svg">
<path d="M9.00002 12.75V14.5833M3.50002 18.25H14.5C14.9863 18.25 15.4526 18.0568 15.7964 17.713C16.1402 17.3692 16.3334 16.9029 16.3334 16.4167V10.9167C16.3334 10.4304 16.1402 9.96412 15.7964 9.6203C15.4526 9.27649 14.9863 9.08333 14.5 9.08333H3.50002C3.01379 9.08333 2.54747 9.27649 2.20366 9.6203C1.85984 9.96412 1.66669 10.4304 1.66669 10.9167V16.4167C1.66669 16.9029 1.85984 17.3692 2.20366 17.713C2.54747 18.0568 3.01379 18.25 3.50002 18.25ZM12.6667 9.08333V5.41667C12.6667 4.44421 12.2804 3.51158 11.5927 2.82394C10.9051 2.13631 9.97248 1.75 9.00002 1.75C8.02756 1.75 7.09493 2.13631 6.4073 2.82394C5.71966 3.51158 5.33335 4.44421 5.33335 5.41667V9.08333H12.6667Z" stroke="#383535" stroke-opacity="0.6" stroke-width="1.83333" stroke-linecap="round" stroke-linejoin="round"/>
</svg>
