<svg width="24" height="19" viewBox="0 0 24 19" fill="none" xmlns="http://www.w3.org/2000/svg">
<path d="M8.35663 10.1176V10.1462H11.107V11.3839H6.64551V10.2218L8.58792 8.36457C8.97874 7.99018 9.25369 7.67545 9.41279 7.42211C9.57188 7.16877 9.65143 6.9016 9.65143 6.62145C9.65143 5.99762 9.31595 5.68548 8.64455 5.68548C8.06179 5.68548 7.50409 5.9172 6.97148 6.38022V5.06683C7.56073 4.68553 8.22564 4.49487 8.9662 4.49487C9.65921 4.49487 10.2005 4.6691 10.5896 5.01712C10.9786 5.36513 11.1732 5.8355 11.1732 6.42777C11.1732 7.21805 10.6989 8.03557 9.75086 8.87989L8.35663 10.1176Z" fill="#393536"/>
<path d="M14.8552 6.10132H14.8271C14.783 6.21502 14.6978 6.39141 14.5716 6.63048L13.1207 8.87984H14.8366V6.7485C14.8366 6.56001 14.8427 6.34385 14.8552 6.10132ZM17.0107 9.94291H16.1976V11.3838H14.8366V9.94291H11.8826V8.99311L14.7281 4.60852H16.1976V8.87984H17.0107V9.94291Z" fill="#393536"/>
<path d="M9.24409 14.4754H8.86106V13.785H8.15854V14.4754H7.77637V12.7798H8.15854V13.4564H8.86106V12.7798H9.24409V14.4754Z" fill="#393536"/>
<path d="M10.365 13.0803C10.2309 13.0803 10.1246 13.1304 10.0459 13.2307C9.96679 13.3315 9.92745 13.4646 9.92745 13.6302C9.92745 13.7979 9.96679 13.9307 10.0459 14.0284C10.1246 14.1261 10.2279 14.1749 10.3554 14.1749C10.4873 14.1749 10.5919 14.1278 10.6689 14.0323C10.7463 13.9376 10.7847 13.8057 10.7847 13.6371C10.7847 13.4612 10.7476 13.3246 10.6728 13.2268C10.5975 13.1291 10.4951 13.0803 10.365 13.0803ZM10.3485 14.5048C10.1056 14.5048 9.90799 14.4257 9.75495 14.2679C9.60191 14.1101 9.52539 13.9039 9.52539 13.6501C9.52539 13.3821 9.60321 13.1655 9.75841 12.9999C9.91361 12.8343 10.1194 12.7513 10.3758 12.7513C10.6179 12.7513 10.8137 12.8308 10.9629 12.9891C11.1124 13.1477 11.1872 13.3565 11.1872 13.6159C11.1872 13.8822 11.1094 14.0971 10.9546 14.2601C10.7999 14.4235 10.5975 14.5048 10.3485 14.5048Z" fill="#393536"/>
<path d="M12.8511 13.7413C12.8511 14.2501 12.6138 14.5048 12.1391 14.5048C11.6787 14.5048 11.4482 14.2562 11.4482 13.7586V12.7798H11.8313V13.7638C11.8313 14.0379 11.9389 14.1749 12.1534 14.1749C12.3639 14.1749 12.4689 14.0426 12.4689 13.7776V12.7798H12.8511V13.7413Z" fill="#393536"/>
<path d="M13.6029 13.066V13.5377H13.7685C13.8506 13.5377 13.9163 13.5144 13.966 13.4668C14.0166 13.4188 14.0417 13.3592 14.0417 13.2883C14.0417 13.14 13.9526 13.066 13.7754 13.066H13.6029ZM14.6435 14.4754H14.2047L13.9409 14.0392C13.9215 14.0059 13.9025 13.9765 13.8843 13.9501C13.8662 13.9242 13.848 13.9021 13.8294 13.8836C13.8108 13.865 13.7914 13.8507 13.771 13.8412C13.7512 13.8312 13.7291 13.8265 13.7058 13.8265H13.6029V14.4754H13.2207V12.7798H13.8264C14.238 12.7798 14.4437 12.9333 14.4437 13.2411C14.4437 13.2999 14.4347 13.3544 14.4165 13.4045C14.3983 13.4547 14.3728 13.5001 14.3395 13.5403C14.3063 13.5805 14.2665 13.6151 14.2194 13.6445C14.1727 13.6735 14.1204 13.6964 14.0629 13.7128V13.7175C14.0884 13.7253 14.1126 13.7383 14.1364 13.756C14.1601 13.7737 14.1826 13.7945 14.2047 13.8178C14.2267 13.8416 14.2479 13.8671 14.2682 13.8944C14.2881 13.9216 14.3063 13.948 14.3231 13.9743L14.6435 14.4754Z" fill="#393536"/>
<path d="M14.7237 14.4101V14.0318C14.7925 14.0897 14.8668 14.1325 14.9472 14.1615C15.0281 14.19 15.1089 14.2047 15.1911 14.2047C15.239 14.2047 15.281 14.2 15.3169 14.1918C15.3527 14.1831 15.383 14.171 15.4068 14.1555C15.431 14.1399 15.4487 14.1222 15.4608 14.101C15.4725 14.0802 15.4781 14.0578 15.4781 14.0331C15.4781 14.0003 15.469 13.9704 15.45 13.9445C15.431 13.9185 15.4055 13.8943 15.3726 13.8723C15.3398 13.8502 15.3009 13.8291 15.2559 13.8083C15.2109 13.788 15.1625 13.7672 15.1106 13.746C14.9779 13.6907 14.8793 13.6233 14.8141 13.5437C14.7492 13.4642 14.7168 13.3678 14.7168 13.2549C14.7168 13.1672 14.7345 13.0911 14.77 13.0275C14.8054 12.964 14.8538 12.9117 14.9148 12.871C14.9758 12.83 15.0467 12.7997 15.1271 12.7802C15.2075 12.7612 15.2926 12.7513 15.3826 12.7513C15.4708 12.7513 15.549 12.7569 15.6173 12.7673C15.6856 12.7781 15.7483 12.7945 15.8058 12.8166V13.1702C15.7773 13.1503 15.7466 13.133 15.7133 13.1179C15.6796 13.1028 15.6454 13.0907 15.6095 13.0807C15.5741 13.0708 15.5391 13.0634 15.5036 13.0591C15.4686 13.0543 15.4353 13.0517 15.4038 13.0517C15.3605 13.0517 15.3212 13.0561 15.2857 13.0643C15.2503 13.0725 15.22 13.0842 15.1958 13.0989C15.1712 13.114 15.1521 13.1322 15.1387 13.1529C15.1258 13.1737 15.1189 13.197 15.1189 13.2229C15.1189 13.2515 15.1262 13.277 15.1413 13.2995C15.1565 13.3219 15.1776 13.3431 15.2053 13.3634C15.233 13.3833 15.2663 13.4032 15.306 13.4227C15.345 13.4417 15.3899 13.4616 15.4396 13.4823C15.5071 13.5104 15.568 13.5407 15.6221 13.5727C15.6761 13.6042 15.7224 13.6406 15.7608 13.6808C15.7998 13.721 15.8292 13.7668 15.8495 13.8182C15.8702 13.8701 15.8806 13.9302 15.8806 13.999C15.8806 14.0936 15.8624 14.1727 15.8266 14.2372C15.7907 14.3016 15.7423 14.3535 15.6804 14.3932C15.619 14.433 15.5477 14.4615 15.466 14.4788C15.3843 14.4961 15.2983 14.5048 15.2075 14.5048C15.1145 14.5048 15.0259 14.497 14.942 14.4814C14.8582 14.4654 14.7855 14.4417 14.7237 14.4101Z" fill="#393536"/>
<path d="M21.3302 9.53049C21.3302 9.52011 21.3307 9.51017 21.3307 9.49979C21.3307 4.25316 17.0762 0 11.8279 0C7.57167 0 3.96958 2.79754 2.75952 6.6534L3.70025 6.14197L4.01022 6.71176C5.15587 3.50179 8.22318 1.20358 11.8279 1.20358C16.3011 1.20358 19.9473 4.74255 20.1193 9.17209L18.2867 8.6304L20.1777 12.108L23.6557 10.2174L21.3302 9.53049Z" fill="#393536"/>
<path d="M19.9554 12.858L19.6459 12.2878C18.5003 15.4982 15.4325 17.796 11.8278 17.796C7.35462 17.796 3.70887 14.2574 3.53681 9.82746L5.36941 10.3692L3.47844 6.89201L0 8.78212L2.32545 9.4695C2.32545 9.47945 2.32502 9.48982 2.32502 9.49977C2.32502 14.7468 6.57991 19 11.8278 19C16.084 19 19.6865 16.2024 20.8966 12.3466L19.9554 12.858Z" fill="#393536"/>
</svg>
