<svg width="14" height="14" viewBox="0 0 14 14" fill="none" xmlns="http://www.w3.org/2000/svg">
<path d="M7 12.25C9.8995 12.25 12.25 9.8995 12.25 7C12.25 4.10051 9.8995 1.75 7 1.75C4.10051 1.75 1.75 4.10051 1.75 7C1.75 9.8995 4.10051 12.25 7 12.25Z" stroke="#28743A" stroke-miterlimit="10"/>
<path d="M7 7.65625C7.36244 7.65625 7.65625 7.36244 7.65625 7C7.65625 6.63756 7.36244 6.34375 7 6.34375C6.63756 6.34375 6.34375 6.63756 6.34375 7C6.34375 7.36244 6.63756 7.65625 7 7.65625Z" fill="#28743A"/>
<path d="M7 5.03125C7.36244 5.03125 7.65625 4.73744 7.65625 4.375C7.65625 4.01256 7.36244 3.71875 7 3.71875C6.63756 3.71875 6.34375 4.01256 6.34375 4.375C6.34375 4.73744 6.63756 5.03125 7 5.03125Z" fill="#28743A"/>
<path d="M7 10.2812C7.36244 10.2812 7.65625 9.98744 7.65625 9.625C7.65625 9.26256 7.36244 8.96875 7 8.96875C6.63756 8.96875 6.34375 9.26256 6.34375 9.625C6.34375 9.98744 6.63756 10.2812 7 10.2812Z" fill="#28743A"/>
</svg>
