<svg width="20" height="20" viewBox="0 0 20 20" fill="none" xmlns="http://www.w3.org/2000/svg">
<path d="M6.33333 5.41667V1.75M13.6667 5.41667V1.75M5.41667 9.08333H14.5833M3.58333 18.25H16.4167C16.9029 18.25 17.3692 18.0568 17.713 17.713C18.0568 17.3692 18.25 16.9029 18.25 16.4167V5.41667C18.25 4.93044 18.0568 4.46412 17.713 4.1203C17.3692 3.77649 16.9029 3.58333 16.4167 3.58333H3.58333C3.0971 3.58333 2.63079 3.77649 2.28697 4.1203C1.94315 4.46412 1.75 4.93044 1.75 5.41667V16.4167C1.75 16.9029 1.94315 17.3692 2.28697 17.713C2.63079 18.0568 3.0971 18.25 3.58333 18.25Z" stroke="#383535" stroke-opacity="0.6" stroke-width="1.83333" stroke-linecap="round" stroke-linejoin="round"/>
</svg>
