<svg width="13" height="13" viewBox="0 0 13 13" fill="none" xmlns="http://www.w3.org/2000/svg">
<g clip-path="url(#clip0_428_4085)">
<path d="M9.71758 9.7176C8.79165 10.4234 7.66418 10.8144 6.50008 10.8334C2.70842 10.8334 0.541748 6.50009 0.541748 6.50009C1.21552 5.24446 2.15003 4.14742 3.28258 3.2826M5.36258 2.29676C5.73543 2.20949 6.11716 2.16586 6.50008 2.16676C10.2917 2.16676 12.4584 6.50009 12.4584 6.50009C12.1296 7.11522 11.7375 7.69433 11.2884 8.22801M7.64842 7.64843C7.49965 7.80808 7.32025 7.93614 7.12091 8.02495C6.92158 8.11377 6.7064 8.16153 6.48821 8.16538C6.27002 8.16923 6.0533 8.12909 5.85095 8.04736C5.64861 7.96563 5.46481 7.84399 5.3105 7.68968C5.15619 7.53537 5.03454 7.35156 4.95282 7.14922C4.87109 6.94688 4.83095 6.73015 4.8348 6.51196C4.83865 6.29377 4.88641 6.07859 4.97522 5.87926C5.06404 5.67993 5.19209 5.50053 5.35175 5.35176" stroke="white" stroke-width="1.3" stroke-linecap="round" stroke-linejoin="round"/>
<path d="M0.541748 0.541748L12.4584 12.4584" stroke="white" stroke-width="1.3" stroke-linecap="round" stroke-linejoin="round"/>
</g>
<defs>
<clipPath id="clip0_428_4085">
<rect width="13" height="13" fill="white"/>
</clipPath>
</defs>
</svg>
