<svg width="22" height="24" viewBox="0 0 22 24" fill="none" xmlns="http://www.w3.org/2000/svg">
<path d="M16 2H6C3.23858 2 1 4.23858 1 7V17C1 19.7614 3.23858 22 6 22H16C18.7614 22 21 19.7614 21 17V7C21 4.23858 18.7614 2 16 2Z" stroke="white" stroke-width="2" stroke-linecap="round" stroke-linejoin="round"/>
<path d="M15 11.3701C15.1234 12.2023 14.9812 13.0523 14.5937 13.7991C14.2062 14.5459 13.5931 15.1515 12.8416 15.5297C12.0901 15.908 11.2384 16.0397 10.4077 15.906C9.57708 15.7723 8.80971 15.3801 8.21479 14.7852C7.61987 14.1903 7.22768 13.4229 7.09402 12.5923C6.96035 11.7616 7.09202 10.91 7.47028 10.1584C7.84854 9.40691 8.45414 8.7938 9.20094 8.4063C9.94773 8.0188 10.7977 7.87665 11.63 8.00006C12.4789 8.12594 13.2648 8.52152 13.8716 9.12836C14.4785 9.73521 14.8741 10.5211 15 11.3701Z" stroke="white" stroke-width="2" stroke-linecap="round" stroke-linejoin="round"/>
<path d="M16.5 6.5H16.51" stroke="white" stroke-width="2" stroke-linecap="round" stroke-linejoin="round"/>
</svg>
