<svg width="21" height="21" viewBox="0 0 21 21" fill="none" xmlns="http://www.w3.org/2000/svg">
<path d="M6.88517 7.625C7.41129 6.50854 8.83058 5.70833 10.5 5.70833C12.6179 5.70833 14.3333 6.99537 14.3333 8.58333C14.3333 9.925 13.1086 11.051 11.4526 11.3692C10.9332 11.4689 10.5 11.8867 10.5 12.4167M10.5 15.2917H10.5096M19.125 10.5C19.125 11.6327 18.9019 12.7542 18.4685 13.8006C18.035 14.8471 17.3997 15.7979 16.5988 16.5988C15.7979 17.3997 14.8471 18.035 13.8006 18.4685C12.7542 18.9019 11.6327 19.125 10.5 19.125C9.36735 19.125 8.24579 18.9019 7.19936 18.4685C6.15292 18.035 5.20211 17.3997 4.4012 16.5988C3.6003 15.7979 2.96499 14.8471 2.53154 13.8006C2.09809 12.7542 1.875 11.6327 1.875 10.5C1.875 8.21251 2.7837 6.01871 4.4012 4.4012C6.0187 2.7837 8.21251 1.875 10.5 1.875C12.7875 1.875 14.9813 2.7837 16.5988 4.4012C18.2163 6.01871 19.125 8.21251 19.125 10.5Z" stroke="#383535" stroke-opacity="0.6" stroke-width="1.91667" stroke-linecap="round" stroke-linejoin="round"/>
</svg>
