<svg width="14" height="14" viewBox="0 0 14 14" fill="none" xmlns="http://www.w3.org/2000/svg">
<path d="M7 8.75C8.20812 8.75 9.1875 7.77062 9.1875 6.5625C9.1875 5.35438 8.20812 4.375 7 4.375C5.79188 4.375 4.8125 5.35438 4.8125 6.5625C4.8125 7.77062 5.79188 8.75 7 8.75Z" stroke="#28743A" stroke-miterlimit="10"/>
<path d="M3.48901 10.9047C3.81818 10.2564 4.32046 9.7118 4.94017 9.33142C5.55988 8.95104 6.27281 8.74969 6.99995 8.74969C7.72709 8.74969 8.44002 8.95104 9.05973 9.33142C9.67944 9.7118 10.1817 10.2564 10.5109 10.9047" stroke="#28743A" stroke-linecap="round" stroke-linejoin="round"/>
<path d="M10.9375 3.9375C11.4207 3.9375 11.8125 3.54575 11.8125 3.0625C11.8125 2.57925 11.4207 2.1875 10.9375 2.1875C10.4543 2.1875 10.0625 2.57925 10.0625 3.0625C10.0625 3.54575 10.4543 3.9375 10.9375 3.9375Z" stroke="#28743A" stroke-linecap="round" stroke-linejoin="round"/>
<path d="M10.9375 2.1875V1.53125" stroke="#28743A" stroke-linecap="round" stroke-linejoin="round"/>
<path d="M10.1773 2.625L9.61401 2.29688" stroke="#28743A" stroke-linecap="round" stroke-linejoin="round"/>
<path d="M10.1773 3.5L9.61401 3.82812" stroke="#28743A" stroke-linecap="round" stroke-linejoin="round"/>
<path d="M10.9375 3.9375V4.59375" stroke="#28743A" stroke-linecap="round" stroke-linejoin="round"/>
<path d="M11.6978 3.5L12.261 3.82812" stroke="#28743A" stroke-linecap="round" stroke-linejoin="round"/>
<path d="M11.6978 2.625L12.261 2.29688" stroke="#28743A" stroke-linecap="round" stroke-linejoin="round"/>
<path d="M12.2117 6.37107C12.2383 6.57964 12.251 6.78973 12.25 6.99997C12.25 8.03833 11.9421 9.05336 11.3652 9.91672C10.7883 10.7801 9.9684 11.453 9.00909 11.8503C8.04978 12.2477 6.99418 12.3517 5.97578 12.1491C4.95738 11.9465 4.02192 11.4465 3.28769 10.7123C2.55347 9.97806 2.05345 9.0426 1.85088 8.0242C1.64831 7.0058 1.75227 5.9502 2.14963 4.99088C2.54699 4.03157 3.2199 3.21163 4.08326 2.63476C4.94662 2.05788 5.96165 1.74997 7 1.74997C7.16251 1.74895 7.32496 1.75625 7.48672 1.77185" stroke="#28743A" stroke-linecap="round" stroke-linejoin="round"/>
</svg>
