<svg width="21" height="19" viewBox="0 0 21 19" fill="none" xmlns="http://www.w3.org/2000/svg">
<path d="M20.024 8.56021H18.9729C18.4949 3.71965 14.3655 -0.0656196 9.38142 0.000862425C4.23033 0.0694484 0.0406955 4.27801 0.000301365 9.42364C-0.041355 14.6968 4.24085 19 9.51018 19C12.7956 19 15.6968 17.3266 17.4056 14.7885C17.6584 14.4127 17.387 13.907 16.9339 13.907C16.7441 13.907 16.5678 14.0021 16.4618 14.1594C14.9049 16.4703 12.2254 17.9666 9.21017 17.8605C4.74788 17.7044 1.16963 14.026 1.13512 9.56586C1.09936 4.92222 4.8699 1.13358 9.51018 1.13358C13.8101 1.13358 17.3626 4.38784 17.8314 8.56021H16.9835C16.8232 8.56021 16.7231 8.73357 16.803 8.87243L18.3233 11.5031C18.4036 11.642 18.6039 11.642 18.6843 11.5031L20.2045 8.87243C20.2849 8.73357 20.1848 8.56021 20.024 8.56021Z" fill="#252D33"/>
<path d="M6.81535 12.5892L9.04249 7.49696V6.71643H4.81836V7.76205H7.72169L5.51095 12.5892H6.81535Z" fill="#252D33"/>
<path d="M12.7341 10.4894C12.7206 10.9266 12.6407 11.2363 12.4947 11.4185C12.3483 11.6011 12.1181 11.692 11.8038 11.692C11.5193 11.692 11.3005 11.5813 11.1478 11.36C10.9946 11.1391 10.9181 10.8071 10.9181 10.3649C10.9181 9.92221 10.9938 9.58475 11.1453 9.35291C11.2972 9.12106 11.5101 9.00535 11.7836 9.00535C12.1194 9.00535 12.3617 9.1097 12.5107 9.31882C12.6596 9.52795 12.7341 9.87382 12.7341 10.3569V10.4894ZM11.4053 8.0077C10.8659 8.0077 10.4422 8.21346 10.135 8.62497C9.82741 9.03649 9.67383 9.61126 9.67383 10.3485C9.67383 11.0755 9.82489 11.644 10.1266 12.0538C10.4287 12.4645 10.844 12.6694 11.3733 12.6694C11.9447 12.6694 12.3701 12.4481 12.6495 12.0059H12.7017L12.9394 12.5891H13.8816V6.33008H12.6495V7.77038C12.6495 8.03336 12.6802 8.33211 12.7421 8.66705H12.7017C12.4038 8.22734 11.9717 8.0077 11.4053 8.0077Z" fill="#252D33"/>
</svg>
