<svg width="86" height="22" viewBox="0 0 86 22" fill="none" xmlns="http://www.w3.org/2000/svg">
<g clip-path="url(#clip0_428_1577)">
<path d="M3.35659 21.6028C2.90244 21.6062 2.45007 21.5456 2.01281 21.4228C1.663 21.3258 1.32089 21.2029 0.989341 21.0551C0.824089 20.9898 0.663277 20.9139 0.507932 20.8276C0.377208 20.7545 0.250657 20.6741 0.128869 20.5869H0.142134L0.00756836 20.5073L0.542046 19.463L1.14476 19.7719V19.7568C1.47723 19.9097 1.81907 20.0414 2.16823 20.151C2.55852 20.2787 2.96681 20.3427 3.37744 20.3405C3.8709 20.3409 4.35559 20.2101 4.78187 19.9615C4.90899 19.831 5.00816 19.676 5.07334 19.5059C5.13851 19.3358 5.16832 19.1541 5.16094 18.9721C5.1575 18.7721 5.10137 18.5766 4.99821 18.4052C4.89505 18.2338 4.74851 18.0927 4.57339 17.996C4.12193 17.6953 3.63158 17.4574 3.11589 17.2891C2.7861 17.1375 2.46074 16.9833 2.1398 16.8266C1.81998 16.6709 1.5154 16.4856 1.23005 16.2732C0.605856 15.7463 0.294391 15.1398 0.295654 14.4537C0.285653 14.1186 0.363404 13.7867 0.521198 13.4909C0.600109 13.3427 0.692083 13.2019 0.796021 13.0701C0.902223 12.9366 1.0209 12.8135 1.15044 12.7024C1.68492 12.2741 2.37103 12.0605 3.20876 12.0618C3.60657 12.0582 4.00346 12.1008 4.39143 12.1888C4.69389 12.2551 4.99151 12.3419 5.28224 12.4484H5.26897C5.3751 12.475 5.47556 12.5053 5.56843 12.5356L5.85652 12.6361L5.24054 13.7581C4.93627 13.6463 4.62626 13.5508 4.31183 13.4719C3.95173 13.3778 3.58096 13.3307 3.20876 13.3317C3.03862 13.3355 2.86893 13.3507 2.70081 13.3772C2.49298 13.4066 2.29318 13.4775 2.11327 13.5856C1.94591 13.6715 1.80737 13.8045 1.71474 13.9682C1.62212 14.1319 1.57947 14.3191 1.59205 14.5068C1.59378 14.6547 1.64822 14.7972 1.74557 14.9086C1.86454 15.0477 2.0046 15.1673 2.16065 15.263C2.35163 15.3841 2.54973 15.4936 2.75388 15.5909C2.97753 15.697 3.20876 15.8051 3.44946 15.9112L3.66363 16.0041C3.95804 16.138 4.27013 16.2852 4.59992 16.4457C4.92322 16.6 5.22781 16.7908 5.50778 17.0143C5.8169 17.2597 6.07453 17.5637 6.2659 17.9089C6.45022 18.2398 6.54679 18.6123 6.54641 18.9911C6.55004 19.3778 6.4506 19.7586 6.25832 20.0942C6.06456 20.432 5.80248 20.7257 5.48882 20.9565C5.17801 21.1468 4.84344 21.2953 4.49378 21.3981C4.12576 21.5176 3.74319 21.5865 3.35659 21.6028Z" fill="white"/>
<path d="M15.1873 21.5099H13.7715L12.9603 19.7037H8.81142L8.03244 21.5099H6.61475L6.86872 20.9414C6.99507 20.6482 7.12143 20.3544 7.24778 20.06C7.38235 19.7644 7.50175 19.4763 7.60979 19.1901L9.26061 15.3331C9.82794 14.0102 10.3782 12.7113 10.9114 11.4363L15.1873 21.5099ZM12.4334 18.4073L12.0998 17.5923C11.9918 17.3327 11.8818 17.0749 11.7643 16.8171C11.6127 16.4608 11.4705 16.131 11.3379 15.8278C11.2052 15.5245 11.0624 15.1764 10.9095 14.7835L10.629 15.4392C10.557 15.6004 10.4888 15.7633 10.4224 15.9282L10.2329 16.4021C10.0813 16.7319 9.93471 17.0591 9.79319 17.3838C9.65167 17.7086 9.50889 18.0497 9.36485 18.4073H12.4334Z" fill="white"/>
<path d="M21.2712 20.2306V21.5289H15.5625V12.1641H16.8589V20.2306H21.2712Z" fill="white"/>
<path d="M30.1735 21.5099H28.7577L27.954 19.7037H23.7976L23.0224 21.5099H21.6047L21.8587 20.9414C21.9851 20.6482 22.1146 20.3544 22.2473 20.06C22.3799 19.7644 22.5012 19.4763 22.6074 19.1901L24.2582 15.3331C24.8255 14.0102 25.3758 12.7113 25.909 11.4363L30.1735 21.5099ZM27.4196 18.4073L27.086 17.5923C26.9799 17.3327 26.868 17.0749 26.7524 16.8171C26.6008 16.4608 26.4568 16.131 26.3241 15.8278C26.1914 15.5245 26.0474 15.1758 25.8957 14.7835L25.6152 15.4392C25.5432 15.6004 25.475 15.7633 25.4086 15.9282L25.2191 16.4021C25.0675 16.7319 24.9209 17.0591 24.7794 17.3838C24.6379 17.7086 24.4951 18.0497 24.3511 18.4073H27.4196Z" fill="white"/>
<path d="M35.5352 21.5232L32.9803 17.5658H31.6707V21.5232H30.4539V12.1641H33.0087C33.3451 12.1645 33.6782 12.2288 33.9905 12.3537C34.3134 12.4812 34.6102 12.6669 34.8662 12.9014C35.1284 13.1444 35.342 13.4351 35.4954 13.7581C35.6607 14.114 35.743 14.5029 35.7361 14.8953C35.7416 15.3813 35.6144 15.8596 35.3684 16.2789C35.1195 16.6965 34.7548 17.033 34.3184 17.2474L37.0988 21.527L35.5352 21.5232ZM33.0504 16.2504C33.2474 16.2545 33.4425 16.2109 33.619 16.1234C33.7772 16.0435 33.9176 15.9326 34.0322 15.7974C34.1425 15.6652 34.2308 15.5161 34.2938 15.3558C34.3537 15.207 34.3852 15.0482 34.3866 14.8877C34.3935 14.6603 34.3433 14.4349 34.2407 14.2319C34.1497 14.0632 34.029 13.9123 33.8844 13.7865C33.7548 13.6762 33.6047 13.5925 33.4428 13.5401C33.3158 13.4961 33.1829 13.4712 33.0485 13.4662H31.6707V16.2504H33.0504Z" fill="white"/>
<path d="M41.4296 16.819L41.3633 16.9119V21.5251H40.0631V16.8967C39.9645 16.7622 39.8584 16.6219 39.7428 16.476C39.6272 16.33 39.5191 16.1879 39.4206 16.0552L38.4995 14.8252L38.0711 14.2566C37.929 14.067 37.7811 13.8775 37.6295 13.669L36.481 12.1528H38.0977L40.7322 15.589L41.894 14.0727C41.9489 14.0007 42.0039 13.923 42.0608 13.8377C42.1176 13.7524 42.1707 13.6747 42.2162 13.6046L43.3249 12.1604H44.9435L41.4296 16.819Z" fill="white"/>
<path d="M51.1376 21.6028H49.5266V17.7781H44.1079L51.1376 8.68054V16.1689H52.5004V17.78H51.1376V21.6028ZM47.347 16.167H49.5247V13.3696L47.347 16.167Z" fill="white"/>
<path d="M72.5261 20.3065V21.6028H66.8174V12.2438H68.1138V20.3065H72.5261Z" fill="white"/>
<path d="M74.6244 12.2438V21.6028H73.3147V12.2438H74.6244Z" fill="white"/>
<path d="M76.5765 13.5269V16.2504H79.7038V17.454H76.5765V21.6123H75.2668V12.2305H80.3463V13.5269H76.5765Z" fill="white"/>
<path d="M82.2322 13.5269V16.2504H85.3462V17.454H82.2322V20.3159H86.002V21.6123H80.9207V12.2305H86.002V13.5269H82.2322Z" fill="white"/>
<path fill-rule="evenodd" clip-rule="evenodd" d="M62.5171 2.19857C63.6847 2.09622 67.9207 1.70957 69.0939 1.8195C68.8077 2.24784 68.4684 2.67998 68.1462 3.14622L67.3331 4.43315L67.299 4.48811C66.6594 5.50527 66.0895 6.56466 65.5932 7.65898C64.7119 9.58841 63.5425 12.6323 63.3189 14.8062C63.1938 16.0723 63.0687 16.7489 63.1938 18.0586C63.2038 18.3762 63.2348 18.6928 63.2866 19.0062C63.2108 18.703 63.0801 18.3561 63.0042 18.0358C62.4072 15.5719 62.6707 12.7574 63.2791 10.3503C63.7381 8.50286 64.4264 6.72006 65.3279 5.04344C65.5004 4.72503 66.1713 3.71672 66.2282 3.52718C64.5603 3.61626 60.5005 4.21329 58.4574 4.55445C57.2046 4.76293 55.9461 4.98468 54.6762 5.178C54.174 5.25571 54.3066 5.30499 54.1076 5.71817C53.829 6.28677 53.3059 7.59074 53.2206 8.15176L54.7065 7.81629C54.861 7.50145 54.9958 7.17736 55.1102 6.84589C55.1974 6.64498 55.205 6.54643 55.4154 6.46682C56.8994 5.9494 61.8235 5.57413 63.3189 5.51916C63.2582 5.74281 63.1047 6.06123 63.008 6.30762C61.3326 10.5645 60.7791 15.3426 63.0914 19.3986C62.7834 19.0286 62.5022 18.6372 62.2499 18.2273C60.7664 15.803 60.1353 12.9525 60.4569 10.1286C60.5295 9.56792 60.6493 9.01441 60.8151 8.47396C60.8929 8.21809 60.9876 7.95465 61.0805 7.71584C61.1909 7.4841 61.2877 7.24615 61.3705 7.0032L57.8528 7.53199C57.6897 7.53576 57.5294 7.57454 57.3827 7.64571C57.1003 7.59454 52.5838 8.48344 52.2142 8.63507C52.11 8.70709 51.9981 9.17144 51.9621 9.30032C51.0372 12.5792 51.5622 16.2675 53.2415 19.1825L53.5845 19.7056C53.5163 19.4251 53.2794 18.9475 53.1694 18.6575C52.2499 16.2263 52.0319 13.5856 52.5402 11.0364C52.5838 10.8317 52.6331 10.6308 52.6786 10.4489L52.8434 9.96368C52.8814 9.73814 56.8672 9.22451 57.2633 9.16196C57.36 9.16196 57.5173 9.17333 57.5287 9.107C57.5913 9.11926 57.6556 9.11926 57.7182 9.107C57.9077 9.08425 57.7845 9.11647 57.8243 9.0634C58.2148 9.11458 58.8687 8.93642 59.2856 8.93642C59.2856 9.03687 59.0809 10.1816 59.0828 10.9644C59.0807 12.8668 59.522 14.7435 60.3716 16.4457C60.6484 16.9972 60.8796 17.4255 61.1696 17.9164L61.8614 18.9361C62.2556 19.4649 63.8685 21.3223 64.367 21.5137C64.3025 21.1783 64.1774 20.839 64.0846 20.477C63.6278 18.6101 63.8761 16.1822 64.4295 14.3229C64.6675 13.5026 64.9484 12.6954 65.271 11.9045C65.8853 10.4086 66.6074 8.95925 67.4317 7.568C68.6202 5.56344 69.943 3.64162 71.391 1.81571L72.8334 0C69.8009 0.00947658 65.7297 0.379064 62.5854 0.799824C62.4262 0.820672 62.0528 0.828255 61.9334 0.923021C61.6491 0.88322 59.6325 1.22627 59.0771 1.31346C58.4252 1.4158 58.5199 1.3362 58.319 1.66598C57.94 2.29712 56.9032 3.90814 56.7687 4.56203C58.5578 4.27204 57.9058 4.62268 58.7095 3.33765C59.1302 2.66482 58.9104 2.73305 59.6382 2.60227C60.5898 2.41547 61.5509 2.2807 62.5171 2.19857Z" fill="white"/>
<path d="M56.8575 19.7852C59.2786 19.7852 61.2414 17.9455 61.2414 15.6762C61.2414 13.4068 59.2786 11.5671 56.8575 11.5671C54.4364 11.5671 52.4736 13.4068 52.4736 15.6762C52.4736 17.9455 54.4364 19.7852 56.8575 19.7852Z" fill="white"/>
<path fill-rule="evenodd" clip-rule="evenodd" d="M56.0387 14.1902C56.1983 14.3983 56.3355 14.6225 56.4481 14.8593H57.2669L57.2839 14.1694H57.8279C57.8393 15.0621 57.8279 14.7854 57.9549 14.8593C58.0819 14.9332 58.0762 14.6698 58.08 15.3881L57.8374 15.4184C57.8374 16.0552 57.7881 15.8733 58.0155 15.9624L58.0781 15.987C58.0781 16.639 58.0781 16.4021 57.9568 16.4722C57.8355 16.5423 57.845 16.2504 57.8222 17.2H57.2536C57.1172 16.9782 56.9655 16.711 56.8082 16.4722H56.0027L55.9838 17.1981L55.4341 17.1848C55.4341 16.4817 55.4853 16.5556 55.3242 16.4722L55.1801 16.421V15.9851L55.2181 15.9718L55.2541 15.9586L55.3223 15.932C55.4569 15.8657 55.4265 15.9965 55.4455 15.3976C55.4265 15.3976 55.472 15.3862 55.3337 15.3578C55.3003 15.354 55.2666 15.354 55.2332 15.3578V14.8744L55.455 14.8555V14.2035L56.0425 14.1902H56.0387ZM58.1615 12.3139C58.4514 12.4693 58.7278 12.6487 58.9878 12.8502C61.3342 14.9597 60.2937 18.1571 58.0914 19.0783C58.8495 18.9285 59.5185 18.3429 59.8521 17.924C60.8813 16.6314 60.9078 14.7759 59.9279 13.5307C59.5849 13.0928 58.8684 12.456 58.1615 12.3139ZM56.9181 18.8811C58.8135 18.6727 60.0359 17.0616 59.8331 15.3293C59.7861 14.9068 59.6559 14.4978 59.4501 14.1259C59.2443 13.7539 58.9669 13.4264 58.6339 13.1621C58.3009 12.8979 57.919 12.7021 57.51 12.5861C57.101 12.4701 56.6731 12.4362 56.251 12.4863C53.8781 12.7612 52.7333 15.3919 53.8117 17.2379C54.1133 17.7844 54.5679 18.2309 55.1198 18.5225C55.6717 18.8141 56.2967 18.9381 56.9181 18.8792V18.8811ZM57.1077 19.1996C57.5771 19.1433 58.0292 18.9883 58.4344 18.7447C58.6187 18.6407 58.7888 18.5133 58.9405 18.3656C59.1106 18.2305 59.2668 18.0788 59.4067 17.9126C59.9948 17.1373 60.2621 16.1656 60.1535 15.1985C60.0496 14.4602 59.7166 13.7731 59.2013 13.2342C58.686 12.6954 58.0145 12.3319 57.2815 12.1951C56.5486 12.0584 55.7912 12.1553 55.1163 12.4721C54.4413 12.7889 53.8829 13.3097 53.5198 13.9609C53.4124 14.1547 53.3223 14.3577 53.2507 14.5674C53.0611 15.14 53.0206 15.7516 53.1329 16.3442C53.2452 16.9369 53.5067 17.4911 53.8927 17.9547C54.2787 18.4183 54.7764 18.7758 55.3389 18.9936C55.9014 19.2114 56.5102 19.2823 57.1077 19.1996ZM56.4519 15.9301C56.4067 15.8277 56.3514 15.7299 56.287 15.6383C56.0975 15.3312 56.1809 15.4165 56.0274 15.3995C55.9892 15.5743 55.9796 15.7541 55.9989 15.932L56.4519 15.9301ZM57.2688 15.39H56.8272C56.8744 15.5154 56.9381 15.634 57.0167 15.7425C57.1134 15.915 57.066 15.9169 57.2688 15.9434V15.39ZM59.5981 15.4165C59.5657 15.028 59.4568 14.6498 59.2776 14.3036C59.0985 13.9574 58.8526 13.65 58.5542 13.3992C58.2558 13.1483 57.9108 12.959 57.5389 12.842C57.167 12.725 56.7757 12.6827 56.3875 12.7176C53.9236 12.9071 52.4566 16.0893 54.8712 18.0984C55.3526 18.4964 56.2339 18.7087 56.8935 18.648C58.5462 18.5002 59.7137 17.1185 59.5981 15.4165Z" fill="#28743A"/>
</g>
<defs>
<clipPath id="clip0_428_1577">
<rect width="86" height="21.6028" fill="white"/>
</clipPath>
</defs>
</svg>
