<svg width="86" height="22" viewBox="0 0 86 22" fill="none" xmlns="http://www.w3.org/2000/svg">
<g clip-path="url(#clip0_428_2296)">
<path d="M3.35684 21.6028C2.90268 21.6061 2.45031 21.5455 2.01306 21.4227C1.66324 21.3257 1.32113 21.2028 0.989585 21.055C0.824333 20.9898 0.663521 20.9138 0.508176 20.8276C0.377452 20.7544 0.250901 20.6741 0.129113 20.5869H0.142378L0.0078125 20.5073L0.54229 19.463L1.145 19.7719V19.7567C1.47747 19.9097 1.81932 20.0413 2.16847 20.151C2.55876 20.2786 2.96706 20.3426 3.37769 20.3405C3.87115 20.3408 4.35584 20.21 4.78212 19.9614C4.90923 19.8309 5.0084 19.6759 5.07358 19.5058C5.13876 19.3357 5.16856 19.1541 5.16118 18.9721C5.15774 18.7721 5.10161 18.5765 4.99845 18.4051C4.8953 18.2338 4.74876 18.0926 4.57363 17.996C4.12217 17.6952 3.63183 17.4574 3.11613 17.289C2.78635 17.1374 2.46098 16.9832 2.14004 16.8266C1.82022 16.6708 1.51565 16.4855 1.23029 16.2731C0.6061 15.7462 0.294635 15.1397 0.295899 14.4536C0.285898 14.1185 0.363648 13.7866 0.521442 13.4908C0.600354 13.3427 0.692327 13.2019 0.796265 13.07C0.902467 12.9365 1.02114 12.8134 1.15069 12.7024C1.68517 12.274 2.37127 12.0605 3.209 12.0617C3.60682 12.0581 4.00371 12.1007 4.39168 12.1887C4.69414 12.2551 4.99176 12.3418 5.28248 12.4484H5.26921C5.37535 12.4749 5.4758 12.5052 5.56867 12.5356L5.85676 12.636L5.24078 13.7581C4.93652 13.6462 4.62651 13.5507 4.31208 13.4719C3.95197 13.3777 3.5812 13.3306 3.209 13.3316C3.03886 13.3355 2.86917 13.3507 2.70106 13.3771C2.49322 13.4065 2.29342 13.4774 2.11351 13.5856C1.94616 13.6714 1.80762 13.8044 1.71499 13.9681C1.62236 14.1318 1.57971 14.319 1.5923 14.5067C1.59403 14.6546 1.64846 14.7971 1.74582 14.9085C1.86478 15.0476 2.00484 15.1672 2.16089 15.2629C2.35188 15.384 2.54998 15.4935 2.75412 15.5908C2.97777 15.697 3.209 15.805 3.44971 15.9111L3.66388 16.004C3.95828 16.1379 4.27038 16.2851 4.60016 16.4456C4.92346 16.5999 5.22806 16.7907 5.50802 17.0142C5.81714 17.2596 6.07478 17.5636 6.26615 17.9088C6.45046 18.2397 6.54703 18.6122 6.54666 18.991C6.55028 19.3778 6.45085 19.7585 6.25857 20.0941C6.0648 20.4319 5.80272 20.7256 5.48907 20.9565C5.17826 21.1468 4.84369 21.2953 4.49403 21.3981C4.12601 21.5176 3.74343 21.5864 3.35684 21.6028Z" fill="#ED1C24"/>
<path d="M15.1873 21.5099H13.7715L12.9603 19.7036H8.81142L8.03244 21.5099H6.61475L6.86872 20.9413C6.99507 20.6481 7.12143 20.3544 7.24778 20.06C7.38235 19.7643 7.50175 19.4762 7.60979 19.19L9.26061 15.3331C9.82794 14.0101 10.3782 12.7112 10.9114 11.4363L15.1873 21.5099ZM12.4334 18.4073L12.0998 17.5923C11.9918 17.3326 11.8818 17.0748 11.7643 16.8171C11.6127 16.4608 11.4705 16.131 11.3379 15.8277C11.2052 15.5245 11.0624 15.1764 10.9095 14.7834L10.629 15.4392C10.557 15.6003 10.4888 15.7633 10.4224 15.9282L10.2329 16.402C10.0813 16.7318 9.93471 17.0591 9.79319 17.3838C9.65167 17.7085 9.50889 18.0497 9.36485 18.4073H12.4334Z" fill="#ED1C24"/>
<path d="M21.2712 20.2307V21.5289H15.5625V12.1642H16.8589V20.2307H21.2712Z" fill="#ED1C24"/>
<path d="M30.1732 21.5099H28.7574L27.9538 19.7036H23.7974L23.0222 21.5099H21.6045L21.8585 20.9413C21.9848 20.6481 22.1143 20.3544 22.247 20.06C22.3797 19.7643 22.501 19.4762 22.6071 19.19L24.2579 15.3331C24.8253 14.0101 25.3755 12.7112 25.9088 11.4363L30.1732 21.5099ZM27.4193 18.4073L27.0858 17.5923C26.9796 17.3326 26.8678 17.0748 26.7522 16.8171C26.6005 16.4608 26.4565 16.131 26.3238 15.8277C26.1912 15.5245 26.0471 15.1757 25.8955 14.7834L25.615 15.4392C25.543 15.6003 25.4747 15.7633 25.4084 15.9282L25.2189 16.402C25.0672 16.7318 24.9207 17.0591 24.7791 17.3838C24.6376 17.7085 24.4949 18.0497 24.3508 18.4073H27.4193Z" fill="#ED1C24"/>
<path d="M35.5354 21.5233L32.9806 17.5658H31.6709V21.5233H30.4541V12.1642H33.009C33.3453 12.1646 33.6785 12.2289 33.9908 12.3537C34.3136 12.4813 34.6104 12.6669 34.8664 12.9015C35.1287 13.1444 35.3423 13.4352 35.4956 13.7581C35.6609 14.1141 35.7432 14.5029 35.7364 14.8953C35.7418 15.3814 35.6147 15.8597 35.3687 16.2789C35.1198 16.6966 34.755 17.033 34.3187 17.2474L37.0991 21.527L35.5354 21.5233ZM33.0507 16.2505C33.2477 16.2545 33.4427 16.211 33.6193 16.1235C33.7774 16.0435 33.9179 15.9327 34.0325 15.7975C34.1427 15.6653 34.231 15.5162 34.294 15.3559C34.3539 15.207 34.3854 15.0482 34.3869 14.8878C34.3937 14.6604 34.3436 14.435 34.2409 14.232C34.1499 14.0633 34.0292 13.9124 33.8846 13.7866C33.755 13.6763 33.6049 13.5926 33.443 13.5402C33.316 13.4961 33.1831 13.4712 33.0488 13.4663H31.6709V16.2505H33.0507Z" fill="#ED1C24"/>
<path d="M41.4296 16.8191L41.3633 16.912V21.5252H40.0631V16.8968C39.9645 16.7622 39.8584 16.622 39.7428 16.476C39.6272 16.3301 39.5191 16.188 39.4206 16.0553L38.4995 14.8252L38.0711 14.2566C37.929 14.0671 37.7811 13.8776 37.6295 13.6691L36.481 12.1528H38.0977L40.7322 15.589L41.894 14.0728C41.9489 14.0008 42.0039 13.9231 42.0608 13.8378C42.1176 13.7525 42.1707 13.6748 42.2162 13.6046L43.3249 12.1604H44.9435L41.4296 16.8191Z" fill="#ED1C24"/>
<path d="M51.1376 21.6028H49.5266V17.7781H44.1079L51.1376 8.68054V16.1689H52.5004V17.78H51.1376V21.6028ZM47.347 16.167H49.5247V13.3696L47.347 16.167Z" fill="#28743A"/>
<path d="M72.5261 20.3065V21.6028H66.8174V12.2438H68.1138V20.3065H72.5261Z" fill="#ED1C24"/>
<path d="M74.6241 12.2438V21.6028H73.3145V12.2438H74.6241Z" fill="#ED1C24"/>
<path d="M76.5763 13.5269V16.2504H79.7035V17.454H76.5763V21.6123H75.2666V12.2305H80.346V13.5269H76.5763Z" fill="#ED1C24"/>
<path d="M82.232 13.5269V16.2504H85.346V17.454H82.232V20.3159H86.0018V21.6123H80.9204V12.2305H86.0018V13.5269H82.232Z" fill="#ED1C24"/>
<path fill-rule="evenodd" clip-rule="evenodd" d="M62.5169 2.19857C63.6844 2.09622 67.9204 1.70957 69.0936 1.8195C68.8075 2.24784 68.4682 2.67998 68.146 3.14622L67.3329 4.43315L67.2988 4.48811C66.6591 5.50527 66.0892 6.56466 65.593 7.65898C64.7117 9.58841 63.5423 12.6323 63.3186 14.8062C63.1935 16.0723 63.0684 16.7489 63.1935 18.0586C63.2035 18.3762 63.2345 18.6928 63.2864 19.0062C63.2106 18.703 63.0798 18.3561 63.004 18.0358C62.407 15.5719 62.6704 12.7574 63.2788 10.3503C63.7378 8.50286 64.4261 6.72006 65.3277 5.04344C65.5001 4.72503 66.1711 3.71672 66.2279 3.52718C64.56 3.61626 60.5003 4.21329 58.4571 4.55445C57.2043 4.76293 55.9458 4.98468 54.676 5.178C54.1737 5.25571 54.3064 5.30499 54.1074 5.71817C53.8288 6.28677 53.3057 7.59074 53.2204 8.15176L54.7063 7.81629C54.8607 7.50145 54.9956 7.17736 55.11 6.84589C55.1972 6.64498 55.2048 6.54643 55.4151 6.46682C56.8992 5.9494 61.8232 5.57413 63.3186 5.51916C63.258 5.74281 63.1044 6.06123 63.0078 6.30762C61.3323 10.5645 60.7789 15.3426 63.0912 19.3986C62.7832 19.0286 62.502 18.6372 62.2497 18.2273C60.7662 15.803 60.1351 12.9525 60.4567 10.1286C60.5292 9.56792 60.649 9.01441 60.8149 8.47396C60.8926 8.21809 60.9874 7.95465 61.0803 7.71584C61.1906 7.4841 61.2874 7.24615 61.3702 7.0032L57.8525 7.53199C57.6895 7.53576 57.5292 7.57454 57.3825 7.64571C57.1001 7.59454 52.5835 8.48344 52.214 8.63507C52.1097 8.70709 51.9979 9.17144 51.9619 9.30032C51.037 12.5792 51.562 16.2675 53.2412 19.1825L53.5843 19.7056C53.516 19.4251 53.2791 18.9475 53.1692 18.6575C52.2497 16.2263 52.0316 13.5856 52.5399 11.0364C52.5835 10.8317 52.6328 10.6308 52.6783 10.4489L52.8432 9.96368C52.8811 9.73814 56.867 9.22451 57.2631 9.16196C57.3597 9.16196 57.5171 9.17333 57.5284 9.107C57.591 9.11926 57.6554 9.11926 57.718 9.107C57.9075 9.08425 57.7843 9.11647 57.8241 9.0634C58.2145 9.11458 58.8684 8.93642 59.2854 8.93642C59.2854 9.03687 59.0807 10.1816 59.0826 10.9644C59.0805 12.8668 59.5217 14.7435 60.3714 16.4457C60.6481 16.9972 60.8793 17.4255 61.1693 17.9164L61.8611 18.9361C62.2553 19.4649 63.8683 21.3223 64.3667 21.5137C64.3023 21.1783 64.1772 20.839 64.0843 20.477C63.6276 18.6101 63.8758 16.1822 64.4293 14.3229C64.6673 13.5026 64.9482 12.6954 65.2708 11.9045C65.885 10.4086 66.6072 8.95925 67.4315 7.568C68.6199 5.56344 69.9427 3.64162 71.3908 1.81571L72.8331 0C69.8006 0.00947658 65.7295 0.379064 62.5851 0.799824C62.4259 0.820672 62.0526 0.828255 61.9331 0.923021C61.6488 0.88322 59.6322 1.22627 59.0769 1.31346C58.4249 1.4158 58.5197 1.3362 58.3188 1.66598C57.9397 2.29712 56.903 3.90814 56.7684 4.56203C58.5576 4.27204 57.9056 4.62268 58.7092 3.33765C59.13 2.66482 58.9101 2.73305 59.6379 2.60227C60.5895 2.41547 61.5506 2.2807 62.5169 2.19857Z" fill="#28743A"/>
<path d="M56.8575 19.7852C59.2786 19.7852 61.2414 17.9455 61.2414 15.6762C61.2414 13.4068 59.2786 11.5671 56.8575 11.5671C54.4364 11.5671 52.4736 13.4068 52.4736 15.6762C52.4736 17.9455 54.4364 19.7852 56.8575 19.7852Z" fill="white"/>
<path fill-rule="evenodd" clip-rule="evenodd" d="M56.0387 14.1902C56.1983 14.3983 56.3355 14.6225 56.4481 14.8593H57.2669L57.2839 14.1694H57.8279C57.8393 15.0621 57.8279 14.7854 57.9549 14.8593C58.0819 14.9332 58.0762 14.6698 58.08 15.3881L57.8374 15.4184C57.8374 16.0552 57.7881 15.8733 58.0155 15.9624L58.0781 15.987C58.0781 16.639 58.0781 16.4021 57.9568 16.4722C57.8355 16.5423 57.845 16.2504 57.8222 17.2H57.2536C57.1172 16.9782 56.9655 16.711 56.8082 16.4722H56.0027L55.9838 17.1981L55.4341 17.1848C55.4341 16.4817 55.4853 16.5556 55.3242 16.4722L55.1801 16.421V15.9851L55.2181 15.9718L55.2541 15.9586L55.3223 15.932C55.4569 15.8657 55.4265 15.9965 55.4455 15.3976C55.4265 15.3976 55.472 15.3862 55.3337 15.3578C55.3003 15.354 55.2666 15.354 55.2332 15.3578V14.8744L55.455 14.8555V14.2035L56.0425 14.1902H56.0387ZM58.1615 12.3139C58.4514 12.4693 58.7278 12.6487 58.9878 12.8502C61.3342 14.9597 60.2937 18.1571 58.0914 19.0783C58.8495 18.9285 59.5185 18.3429 59.8521 17.924C60.8813 16.6314 60.9078 14.7759 59.9279 13.5307C59.5849 13.0928 58.8684 12.456 58.1615 12.3139ZM56.9181 18.8811C58.8135 18.6727 60.0359 17.0616 59.8331 15.3293C59.7861 14.9068 59.6559 14.4978 59.4501 14.1259C59.2443 13.7539 58.9669 13.4264 58.6339 13.1621C58.3009 12.8979 57.919 12.7021 57.51 12.5861C57.101 12.4701 56.6731 12.4362 56.251 12.4863C53.8781 12.7612 52.7333 15.3919 53.8117 17.2379C54.1133 17.7844 54.5679 18.2309 55.1198 18.5225C55.6717 18.8141 56.2967 18.9381 56.9181 18.8792V18.8811ZM57.1077 19.1996C57.5771 19.1433 58.0292 18.9883 58.4344 18.7447C58.6187 18.6407 58.7888 18.5133 58.9405 18.3656C59.1106 18.2305 59.2668 18.0788 59.4067 17.9126C59.9948 17.1373 60.2621 16.1656 60.1535 15.1985C60.0496 14.4602 59.7166 13.7731 59.2013 13.2342C58.686 12.6954 58.0145 12.3319 57.2815 12.1951C56.5486 12.0584 55.7912 12.1553 55.1163 12.4721C54.4413 12.7889 53.8829 13.3097 53.5198 13.9609C53.4124 14.1547 53.3223 14.3577 53.2507 14.5674C53.0611 15.14 53.0206 15.7516 53.1329 16.3442C53.2452 16.9369 53.5067 17.4911 53.8927 17.9547C54.2787 18.4183 54.7764 18.7758 55.3389 18.9936C55.9014 19.2114 56.5102 19.2823 57.1077 19.1996ZM56.4519 15.9301C56.4067 15.8277 56.3514 15.7299 56.287 15.6383C56.0975 15.3312 56.1809 15.4165 56.0274 15.3995C55.9892 15.5743 55.9796 15.7541 55.9989 15.932L56.4519 15.9301ZM57.2688 15.39H56.8272C56.8744 15.5154 56.9381 15.634 57.0167 15.7425C57.1134 15.915 57.066 15.9169 57.2688 15.9434V15.39ZM59.5981 15.4165C59.5657 15.028 59.4568 14.6498 59.2776 14.3036C59.0985 13.9574 58.8526 13.65 58.5542 13.3992C58.2558 13.1483 57.9108 12.959 57.5389 12.842C57.167 12.725 56.7757 12.6827 56.3875 12.7176C53.9236 12.9071 52.4566 16.0893 54.8712 18.0984C55.3526 18.4964 56.2339 18.7087 56.8935 18.648C58.5462 18.5002 59.7137 17.1185 59.5981 15.4165Z" fill="#28743A"/>
</g>
<defs>
<clipPath id="clip0_428_2296">
<rect width="86" height="21.6028" fill="white"/>
</clipPath>
</defs>
</svg>
